<?xml version="1.0" encoding="iso-8859-1"?>
<!-- Generator: Adobe Illustrator 19.0.0, SVG Export Plug-In . SVG Version: 6.00 Build 0)  -->
<svg version="1.1" id="Layer_1" xmlns="http://www.w3.org/2000/svg" xmlns:xlink="http://www.w3.org/1999/xlink" x="0px" y="0px"
	 viewBox="0 0 300.002 300.002" style="enable-background:new 0 0 300.002 300.002;" xml:space="preserve">
<g id="XMLID_810_">
	<path id="XMLID_811_" d="M273.639,270.447l-61.791-15.448l61.791-15.448c8.037-2.009,12.924-10.153,10.914-18.191
		c-2.009-8.038-10.158-12.923-18.19-10.914l-116.362,29.091L33.639,210.447c-8.027-2.007-16.181,2.877-18.19,10.914
		c-2.01,8.037,2.877,16.181,10.914,18.191l61.791,15.448l-61.791,15.448c-8.037,2.009-12.924,10.153-10.914,18.19
		c1.703,6.816,7.819,11.365,14.54,11.365c1.204,0,2.429-0.146,3.649-0.451l116.362-29.091l116.362,29.091
		c1.221,0.305,2.444,0.451,3.649,0.451c6.721,0,12.837-4.55,14.54-11.365C286.563,280.6,281.676,272.456,273.639,270.447z"/>
	<path id="XMLID_812_" d="M67.528,26.672c-0.144,0.213-0.267,0.435-0.398,0.654c-0.12,0.201-0.246,0.397-0.356,0.603
		c-0.121,0.226-0.223,0.457-0.331,0.687c-0.101,0.214-0.207,0.424-0.299,0.644c-0.093,0.225-0.168,0.454-0.25,0.683
		c-0.083,0.233-0.173,0.463-0.245,0.702c-0.069,0.231-0.121,0.465-0.18,0.698c-0.061,0.241-0.128,0.479-0.177,0.725
		c-0.054,0.272-0.087,0.547-0.125,0.821c-0.03,0.21-0.07,0.417-0.091,0.629c-0.049,0.495-0.075,0.991-0.075,1.488V125
		c0,46.869,38.131,85,85,85s85-38.131,85-85V35.005c0-0.497-0.025-0.993-0.075-1.488c-0.02-0.212-0.061-0.419-0.091-0.629
		c-0.039-0.274-0.071-0.549-0.125-0.821c-0.049-0.246-0.116-0.483-0.177-0.725c-0.059-0.233-0.11-0.468-0.18-0.698
		c-0.072-0.239-0.162-0.469-0.245-0.702c-0.082-0.229-0.157-0.458-0.25-0.683c-0.092-0.22-0.198-0.43-0.299-0.644
		c-0.108-0.229-0.211-0.461-0.331-0.687c-0.11-0.206-0.236-0.402-0.356-0.603c-0.131-0.219-0.254-0.441-0.398-0.654
		c-0.15-0.225-0.318-0.438-0.48-0.654c-0.132-0.175-0.253-0.354-0.392-0.524c-0.629-0.765-1.33-1.467-2.096-2.095
		c-0.171-0.141-0.353-0.263-0.529-0.395c-0.214-0.161-0.424-0.327-0.647-0.477c-0.216-0.144-0.439-0.269-0.659-0.4
		c-0.199-0.119-0.393-0.244-0.599-0.354c-0.227-0.121-0.459-0.224-0.69-0.333c-0.213-0.1-0.422-0.206-0.639-0.297
		c-0.227-0.093-0.457-0.169-0.686-0.251c-0.232-0.083-0.462-0.172-0.699-0.244c-0.231-0.07-0.467-0.122-0.7-0.181
		c-0.24-0.06-0.479-0.128-0.723-0.176c-0.273-0.054-0.549-0.086-0.823-0.125c-0.21-0.029-0.415-0.07-0.628-0.091
		c-0.986-0.097-1.979-0.097-2.965,0c-0.213,0.021-0.418,0.062-0.628,0.091c-0.274,0.039-0.55,0.071-0.823,0.125
		c-0.244,0.048-0.482,0.116-0.723,0.176c-0.233,0.059-0.469,0.11-0.7,0.181c-0.237,0.072-0.467,0.161-0.699,0.244
		c-0.229,0.082-0.46,0.158-0.686,0.251c-0.217,0.091-0.426,0.197-0.639,0.297c-0.231,0.109-0.464,0.212-0.69,0.333
		c-0.205,0.11-0.399,0.235-0.599,0.354c-0.221,0.131-0.443,0.256-0.659,0.4c-0.224,0.149-0.434,0.316-0.648,0.477
		c-0.177,0.132-0.358,0.255-0.529,0.395c-0.384,0.315-0.753,0.647-1.104,0.997l-21.774,21.775L162.656,6.947
		C159.903,2.62,155.13,0,150.001,0c-5.129,0-9.901,2.62-12.655,6.947l-24.961,39.224L90.611,24.396
		c-0.351-0.351-0.72-0.682-1.104-0.997c-0.171-0.141-0.353-0.263-0.529-0.395c-0.214-0.161-0.424-0.327-0.647-0.477
		c-0.216-0.144-0.438-0.269-0.659-0.4c-0.199-0.119-0.393-0.244-0.599-0.354c-0.227-0.121-0.459-0.224-0.69-0.333
		c-0.213-0.1-0.422-0.206-0.64-0.297c-0.226-0.093-0.456-0.169-0.686-0.251c-0.232-0.083-0.462-0.172-0.699-0.244
		c-0.231-0.07-0.467-0.122-0.7-0.181c-0.24-0.06-0.479-0.128-0.723-0.176c-0.273-0.054-0.549-0.086-0.823-0.125
		c-0.21-0.029-0.415-0.07-0.628-0.091c-0.985-0.097-1.979-0.097-2.965,0c-0.213,0.021-0.418,0.062-0.628,0.091
		c-0.274,0.039-0.55,0.071-0.823,0.125c-0.244,0.048-0.482,0.116-0.723,0.176c-0.233,0.059-0.469,0.11-0.7,0.181
		c-0.237,0.072-0.467,0.161-0.699,0.244c-0.229,0.082-0.46,0.158-0.686,0.251c-0.218,0.091-0.427,0.197-0.64,0.297
		c-0.231,0.109-0.464,0.212-0.69,0.333c-0.205,0.11-0.399,0.235-0.599,0.354c-0.221,0.131-0.443,0.256-0.659,0.4
		c-0.224,0.149-0.434,0.316-0.647,0.477c-0.177,0.132-0.358,0.255-0.529,0.395c-0.766,0.628-1.468,1.33-2.096,2.095
		c-0.139,0.17-0.261,0.35-0.392,0.524C67.846,26.234,67.678,26.447,67.528,26.672z M150.001,42.939l22.345,35.114
		c0.02,0.031,0.042,0.059,0.062,0.09c0.066,0.103,0.139,0.203,0.208,0.305c0.208,0.305,0.426,0.601,0.651,0.886
		c0.05,0.062,0.096,0.124,0.145,0.185c0.3,0.365,0.615,0.712,0.943,1.043c0.014,0.014,0.025,0.029,0.039,0.043
		c0.02,0.02,0.041,0.035,0.061,0.055c0.678,0.671,1.41,1.269,2.186,1.79c0.069,0.047,0.138,0.093,0.207,0.138
		c0.364,0.235,0.734,0.457,1.115,0.659c0.077,0.041,0.156,0.077,0.234,0.116c0.311,0.158,0.628,0.305,0.949,0.441
		c0.109,0.046,0.219,0.095,0.329,0.139c0.368,0.146,0.741,0.275,1.118,0.391c0.119,0.037,0.24,0.068,0.359,0.102
		c0.332,0.093,0.666,0.175,1.003,0.245c0.081,0.017,0.159,0.038,0.24,0.052c0.409,0.078,0.821,0.135,1.236,0.179
		c0.093,0.01,0.185,0.018,0.277,0.026c0.434,0.037,0.868,0.063,1.304,0.063c0.44,0,0.882-0.027,1.322-0.066
		c0.082-0.007,0.163-0.017,0.244-0.025c0.384-0.04,0.767-0.095,1.148-0.165c0.066-0.012,0.132-0.022,0.198-0.035
		c0.435-0.086,0.868-0.19,1.298-0.317c0.068-0.02,0.135-0.045,0.203-0.066c0.34-0.105,0.676-0.222,1.01-0.353
		c0.139-0.054,0.276-0.11,0.414-0.169c0.277-0.117,0.551-0.246,0.822-0.381c0.131-0.065,0.264-0.124,0.393-0.194
		c0.333-0.178,0.662-0.369,0.986-0.575c0.021-0.014,0.041-0.031,0.063-0.045c0.266-0.171,0.521-0.361,0.776-0.55
		c0.163-0.121,0.333-0.235,0.49-0.36c0.164-0.132,0.319-0.279,0.479-0.418c0.233-0.203,0.468-0.404,0.686-0.62
		c0.02-0.02,0.041-0.035,0.061-0.055l9.394-9.394V125c0,30.327-24.673,55-55,55s-55-24.673-55-55V71.213l9.394,9.394
		c0.02,0.02,0.041,0.035,0.061,0.055c0.218,0.215,0.452,0.416,0.686,0.62c0.159,0.14,0.314,0.287,0.479,0.418
		c0.157,0.125,0.327,0.24,0.49,0.36c0.256,0.189,0.511,0.379,0.776,0.55c0.021,0.014,0.041,0.031,0.063,0.045
		c0.105,0.067,0.216,0.119,0.322,0.183c0.305,0.184,0.609,0.365,0.924,0.525c0.16,0.082,0.323,0.15,0.485,0.225
		c0.281,0.131,0.562,0.262,0.849,0.374c0.212,0.084,0.427,0.151,0.642,0.224c0.24,0.082,0.479,0.167,0.724,0.236
		c0.255,0.072,0.511,0.128,0.768,0.187c0.211,0.048,0.42,0.1,0.633,0.139c0.274,0.05,0.549,0.084,0.825,0.119
		c0.202,0.025,0.403,0.055,0.607,0.072c0.271,0.023,0.542,0.031,0.813,0.039c0.153,0.005,0.307,0.022,0.461,0.022
		c0.061,0,0.121-0.008,0.181-0.009c0.251-0.003,0.499-0.02,0.749-0.036c0.238-0.015,0.476-0.028,0.713-0.054
		c0.221-0.024,0.439-0.061,0.658-0.095c0.264-0.041,0.526-0.081,0.787-0.136c0.193-0.04,0.384-0.092,0.575-0.14
		c0.279-0.07,0.559-0.142,0.834-0.228c0.179-0.056,0.354-0.123,0.53-0.186c0.277-0.099,0.553-0.197,0.825-0.313
		c0.185-0.078,0.364-0.168,0.546-0.254c0.251-0.119,0.502-0.235,0.747-0.369c0.212-0.114,0.415-0.242,0.622-0.367
		c0.204-0.124,0.409-0.243,0.608-0.377c0.248-0.167,0.485-0.35,0.724-0.532c0.148-0.114,0.301-0.222,0.447-0.342
		c0.267-0.221,0.521-0.459,0.773-0.7c0.094-0.089,0.194-0.167,0.286-0.258c0.019-0.019,0.034-0.04,0.054-0.059
		c0.22-0.223,0.426-0.462,0.633-0.701c0.135-0.154,0.276-0.303,0.403-0.461c0.133-0.166,0.255-0.346,0.382-0.519
		c0.181-0.246,0.363-0.49,0.527-0.744c0.016-0.024,0.034-0.045,0.05-0.069L150.001,42.939z"/>
</g>
<g>
</g>
<g>
</g>
<g>
</g>
<g>
</g>
<g>
</g>
<g>
</g>
<g>
</g>
<g>
</g>
<g>
</g>
<g>
</g>
<g>
</g>
<g>
</g>
<g>
</g>
<g>
</g>
<g>
</g>
</svg>
