<?xml version="1.0" encoding="iso-8859-1"?>
<!-- Generator: Adobe Illustrator 16.0.0, SVG Export Plug-In . SVG Version: 6.00 Build 0)  -->
<!DOCTYPE svg PUBLIC "-//W3C//DTD SVG 1.1//EN" "http://www.w3.org/Graphics/SVG/1.1/DTD/svg11.dtd">
<svg version="1.1" id="Capa_1" xmlns="http://www.w3.org/2000/svg" xmlns:xlink="http://www.w3.org/1999/xlink" x="0px" y="0px"
	 width="57.065px" height="57.065px" viewBox="0 0 57.065 57.065" style="enable-background:new 0 0 57.065 57.065;"
	 xml:space="preserve">
<g>
	<path d="M54.729,29.729h-8.795L42.93,9.061h3.636c1.291,0,2.338-1.046,2.338-2.337c0-1.29-1.047-2.337-2.338-2.337H18.008
		c-0.014,0-0.025,0-0.037,0H10.5c-1.291,0-2.338,1.047-2.338,2.337c0,1.291,1.047,2.337,2.338,2.337h4.777l-3.58,20.667H2.338
		C1.047,29.729,0,30.775,0,32.066s1.047,2.336,2.338,2.336h8.551L8.198,49.943c-0.221,1.271,0.631,2.48,1.904,2.701
		c0.135,0.023,0.268,0.034,0.4,0.034c1.115,0,2.104-0.803,2.301-1.938l2.83-16.338h26.255l2.363,16.275
		c0.17,1.162,1.168,2.001,2.312,2.001c0.11,0,0.225-0.008,0.338-0.024c1.276-0.186,2.162-1.371,1.978-2.648l-2.267-15.604h8.116
		c1.291,0,2.337-1.045,2.337-2.336S56.02,29.729,54.729,29.729z M16.442,29.729l3.58-20.667h18.186l3.003,20.667H16.442z"/>
</g>
<g>
</g>
<g>
</g>
<g>
</g>
<g>
</g>
<g>
</g>
<g>
</g>
<g>
</g>
<g>
</g>
<g>
</g>
<g>
</g>
<g>
</g>
<g>
</g>
<g>
</g>
<g>
</g>
<g>
</g>
</svg>
