<?xml version="1.0" encoding="iso-8859-1"?>
<!-- Generator: Adobe Illustrator 19.0.0, SVG Export Plug-In . SVG Version: 6.00 Build 0)  -->
<svg version="1.1" id="Layer_1" xmlns="http://www.w3.org/2000/svg" xmlns:xlink="http://www.w3.org/1999/xlink" x="0px" y="0px"
	 viewBox="0 0 512 512" style="enable-background:new 0 0 512 512;" xml:space="preserve">
<circle style="fill:#FDDF6D;" cx="255.681" cy="256.001" r="245.994"/>
<path style="fill:#FCC56B;" d="M308.398,465.677c-135.858,0-245.993-110.134-245.993-245.993
	c0-72.584,31.443-137.816,81.444-182.842C64.21,77.562,9.691,160.412,9.691,256c0,135.858,110.134,245.993,245.993,245.993
	c63.274,0,120.962-23.898,164.549-63.149C386.68,455.998,348.669,465.677,308.398,465.677z"/>
<g>
	<path style="fill:#7F184C;" d="M291.475,421.175L291.475,421.175c-54.992,0-99.573-44.581-99.573-99.573l0,0h199.146l0,0
		C391.049,376.594,346.468,421.175,291.475,421.175z"/>
	<path style="fill:#7F184C;" d="M245.977,189.862c-5.528,0-10.007-4.479-10.007-10.007c0-12.908-10.501-23.411-23.409-23.411
		c-12.908,0-23.409,10.502-23.409,23.411c0,5.528-4.479,10.007-10.007,10.007c-5.528,0-10.007-4.479-10.007-10.007
		c0-23.944,19.481-43.425,43.424-43.425s43.424,19.481,43.424,43.425C255.984,185.383,251.505,189.862,245.977,189.862z"/>
	<path style="fill:#7F184C;" d="M415.001,189.862c-5.528,0-10.007-4.479-10.007-10.007c0-12.908-10.501-23.411-23.409-23.411
		c-12.908,0-23.411,10.502-23.411,23.411c0,5.528-4.479,10.007-10.007,10.007c-5.528,0-10.007-4.479-10.007-10.007
		c0-23.944,19.481-43.425,43.425-43.425c23.943,0,43.424,19.481,43.424,43.425C425.008,185.383,420.529,189.862,415.001,189.862z"/>
</g>
<g>
	<path style="fill:#F9A880;" d="M149.97,240.77c-18.268,0-33.079,14.81-33.079,33.079h66.157
		C183.049,255.58,168.238,240.77,149.97,240.77z"/>
	<path style="fill:#F9A880;" d="M438.498,236.339c-18.268,0-33.078,14.81-33.078,33.079h66.157
		C471.576,251.148,456.766,236.339,438.498,236.339z"/>
</g>
<path style="fill:#F2F2F2;" d="M216.197,321.602v15.543c0,6.554,5.313,11.866,11.866,11.866h126.822
	c6.554,0,11.866-5.313,11.866-11.866v-15.543H216.197z"/>
<path style="fill:#FC4C59;" d="M293.565,379.864c-26.916-12.505-56.784-10.688-81.005,2.282c18.2,23.721,46.821,39.029,79.03,39.029
	l0,0c14.194,0,27.683-2.99,39.903-8.342C322.529,398.961,309.674,387.348,293.565,379.864z"/>
<path style="fill:#0DAED3;" d="M127.113,149.239c0,28.577-23.166,51.743-51.743,51.743s-51.743-23.166-51.743-51.743
	S75.37,46.137,75.37,46.137S127.113,120.662,127.113,149.239z"/>
<path d="M255.684,0c-58.838,0-115.573,20.16-161.05,56.997C89.18,48.54,84.99,42.447,83.589,40.428
	c-1.869-2.694-4.941-4.3-8.219-4.3c-3.278,0-6.35,1.607-8.219,4.3c-5.479,7.891-53.531,77.988-53.531,108.811
	c0,34.05,27.702,61.751,61.751,61.751s61.751-27.702,61.751-61.751c0-18.279-16.9-50.37-31.798-75.11
	c42.235-34.948,95.294-54.114,150.361-54.114c130.124,0,235.984,105.862,235.984,235.984S385.806,491.984,255.684,491.984
	c-60.059,0-117.281-22.575-161.126-63.568c-43.635-40.794-70.005-95.958-74.251-155.329c-0.394-5.512-5.184-9.687-10.696-9.267
	c-5.513,0.394-9.662,5.182-9.267,10.696c4.607,64.419,33.212,124.269,80.544,168.521C128.456,487.509,190.532,512,255.684,512
	c141.158,0,255.999-114.84,255.999-256C511.682,114.84,396.842,0,255.684,0z M75.37,190.976c-23.013,0-41.736-18.723-41.736-41.736
	c0-16.053,23.025-56.551,41.737-85.176c2.605,3.984,5.293,8.203,7.993,12.549c0.264,0.522,0.572,1.027,0.935,1.508
	c16.38,26.549,32.808,57.546,32.808,71.119C117.106,172.253,98.383,190.976,75.37,190.976z"/>
<path d="M212.56,136.431c-23.943,0-43.424,19.481-43.424,43.424c0,5.528,4.479,10.007,10.007,10.007s10.007-4.479,10.007-10.007
	c0-12.908,10.501-23.409,23.409-23.409s23.409,10.501,23.409,23.409c0,5.528,4.479,10.007,10.007,10.007s10.007-4.479,10.007-10.007
	C255.984,155.912,236.504,136.431,212.56,136.431z"/>
<path d="M358.174,179.855c0-12.908,10.502-23.409,23.411-23.409s23.409,10.501,23.409,23.409c0,5.528,4.479,10.007,10.007,10.007
	c5.528,0,10.007-4.479,10.007-10.007c0-23.943-19.481-43.424-43.424-43.424c-23.944,0-43.425,19.481-43.425,43.424
	c0,5.528,4.479,10.007,10.007,10.007S358.174,185.383,358.174,179.855z"/>
<path d="M181.895,321.6c0,60.423,49.157,109.581,109.58,109.581s109.58-49.157,109.58-109.581c0-5.528-4.479-10.007-10.007-10.007
	H191.902C186.374,311.593,181.895,316.073,181.895,321.6z M380.486,331.608c-4.99,44.694-43.005,79.558-89.011,79.558
	s-84.02-34.864-89.011-79.558H380.486L380.486,331.608z"/>
<circle cx="10.325" cy="237.508" r="10.007"/>
<g>
</g>
<g>
</g>
<g>
</g>
<g>
</g>
<g>
</g>
<g>
</g>
<g>
</g>
<g>
</g>
<g>
</g>
<g>
</g>
<g>
</g>
<g>
</g>
<g>
</g>
<g>
</g>
<g>
</g>
</svg>
